<svg version="1.2" xmlns="http://www.w3.org/2000/svg" viewBox="0 0 64 64" width="64" height="64">
	<style>
		.s0 { fill: #000000 } 
		.s1 { fill: #ffffff } 
	</style>
	<g id="flower">
		<path id="Layer copy" class="s0" d="m57.79 32.15c0-4.03-3.23-7.25-7.26-7.25-0.32 0-0.64 0-0.96 0.16 0.16-0.16 0.48-0.49 0.64-0.65 2.74-2.74 2.74-7.25 0-10.15-2.9-2.75-7.42-2.75-10.16 0-0.32 0.16-0.48 0.48-0.64 0.64 0-0.16 0-0.48 0-0.81 0-3.87-3.23-7.09-7.1-7.09-4.03 0-7.25 3.22-7.25 7.09q0 0.49 0 0.97-0.24-0.24-0.49-0.48c-2.9-2.9-7.41-2.9-10.15 0-2.91 2.74-2.91 7.25 0 10.16 0.16 0.16 0.48 0.32 0.64 0.64-0.32-0.16-0.48-0.16-0.8-0.16-4.04 0-7.26 3.22-7.26 7.26 0 4.03 3.22 7.25 7.26 7.25 0.32 0 0.64-0.16 0.96-0.16-0.16 0.16-0.48 0.32-0.64 0.64-2.74 2.75-2.74 7.26 0 10.16 2.9 2.74 7.41 2.74 10.16 0 0.32-0.32 0.48-0.48 0.64-0.8 0 0.32 0 0.64 0 0.8 0 4.03 3.23 7.26 7.26 7.26 3.87 0 7.09-3.23 7.09-7.26 0-0.32 0-0.64 0-0.8q0.24 0.24 0.48 0.48c2.91 2.9 7.42 2.9 10.16 0 2.9-2.74 2.9-7.26 0-10.16-0.16-0.16-0.48-0.48-0.64-0.64 0.32 0 0.48 0.16 0.8 0.16 4.03 0 7.26-3.23 7.26-7.26zm-25.31 13.06c-7.26 0-12.9-5.8-12.9-12.9 0-7.09 5.64-12.89 12.9-12.89 7.09 0 12.89 5.8 12.89 12.89 0 7.1-5.8 12.9-12.89 12.9z"/>
		<path id="Layer copy 2" class="s0" d="m53.72 32.18c0-3.39-2.71-6.09-6.1-6.09-0.27 0-0.54 0-0.81 0.13 0.14-0.13 0.41-0.4 0.54-0.54 2.31-2.3 2.31-6.09 0-8.53-2.43-2.3-6.22-2.3-8.53 0-0.27 0.14-0.4 0.41-0.54 0.54 0-0.13 0-0.4 0-0.67 0-3.25-2.7-5.96-5.95-5.96-3.39 0-6.1 2.71-6.1 5.96q0 0.4 0 0.81-0.2-0.2-0.4-0.41c-2.44-2.43-6.23-2.43-8.53 0-2.44 2.3-2.44 6.09 0 8.53 0.14 0.14 0.41 0.27 0.54 0.54-0.27-0.13-0.4-0.13-0.68-0.13-3.38 0-6.09 2.7-6.09 6.09 0 3.38 2.71 6.09 6.09 6.09 0.28 0 0.55-0.13 0.82-0.13-0.14 0.13-0.41 0.27-0.54 0.54-2.31 2.3-2.31 6.09 0 8.53 2.43 2.3 6.22 2.3 8.52 0 0.27-0.27 0.41-0.41 0.55-0.68 0 0.27 0 0.54 0 0.68 0 3.38 2.7 6.09 6.09 6.09 3.25 0 5.95-2.71 5.95-6.09 0-0.27 0-0.55 0-0.68q0.21 0.2 0.41 0.41c2.44 2.43 6.23 2.43 8.53 0 2.44-2.31 2.44-6.1 0-8.53-0.14-0.14-0.41-0.41-0.54-0.54 0.27 0 0.4 0.13 0.67 0.13 3.39 0 6.1-2.71 6.1-6.09zm-21.26 10.96c-6.09 0-10.83-4.87-10.83-10.83 0-5.95 4.74-10.83 10.83-10.83 5.96 0 10.83 4.88 10.83 10.83 0 5.96-4.87 10.83-10.83 10.83z"/>
		<path class="s1" d="m55.94 32.16c0-3.73-2.99-6.72-6.73-6.72-0.3 0-0.6 0-0.9 0.15 0.15-0.15 0.45-0.45 0.6-0.6 2.54-2.54 2.54-6.73 0-9.42-2.69-2.54-6.88-2.54-9.42 0-0.29 0.15-0.44 0.45-0.59 0.6 0-0.15 0-0.45 0-0.75 0-3.58-2.99-6.57-6.58-6.57-3.74 0-6.73 2.99-6.73 6.57q0 0.45 0 0.9-0.22-0.22-0.44-0.45c-2.69-2.69-6.88-2.69-9.42 0-2.69 2.54-2.69 6.73 0 9.42 0.15 0.15 0.45 0.3 0.6 0.6-0.3-0.15-0.45-0.15-0.75-0.15-3.74 0-6.73 2.99-6.73 6.72 0 3.74 2.99 6.73 6.73 6.73 0.3 0 0.6-0.15 0.9-0.15-0.15 0.15-0.45 0.3-0.6 0.6-2.54 2.54-2.54 6.72 0 9.41 2.69 2.54 6.87 2.54 9.41 0 0.3-0.3 0.45-0.44 0.6-0.74 0 0.3 0 0.59 0 0.74 0 3.74 2.99 6.73 6.73 6.73 3.59 0 6.58-2.99 6.58-6.73 0-0.3 0-0.59 0-0.74q0.22 0.22 0.44 0.44c2.69 2.7 6.88 2.7 9.42 0 2.69-2.54 2.69-6.72 0-9.41-0.15-0.15-0.45-0.45-0.6-0.6 0.3 0 0.45 0.15 0.75 0.15 3.74 0 6.73-2.99 6.73-6.73zm-23.47 12.11c-6.73 0-11.96-5.38-11.96-11.96 0-6.57 5.23-11.95 11.96-11.95 6.58 0 11.96 5.38 11.96 11.95 0 6.58-5.38 11.96-11.96 11.96z"/>
	</g>
</svg>